<svg width="20" height="17" viewBox="0 0 20 17" fill="none" xmlns="http://www.w3.org/2000/svg" class="custom-svg-icon">
<path d="M19.4014 3.64348V8.50039H18.1888V3.64348H11.5199C11.2231 3.64348 10.9799 3.66245 10.7905 3.7004C10.601 3.73834 10.44 3.78893 10.3074 3.85217C10.1747 3.91542 10.0611 3.98498 9.96633 4.06087C9.8716 4.13676 9.77687 4.21897 9.68214 4.30751C9.58741 4.39605 9.48005 4.47826 9.36006 4.55415C9.24007 4.63004 9.0885 4.70277 8.90536 4.77233C8.798 4.81028 8.67801 4.83241 8.54539 4.83874C8.41277 4.84506 8.29278 4.85138 8.18542 4.85771H1.21333V13.3573H14.5512V14.5715H1.21333C1.04281 14.5715 0.884931 14.5399 0.739679 14.4767C0.594427 14.4134 0.468121 14.3281 0.360761 14.2206C0.253401 14.113 0.164987 13.9834 0.0955189 13.8316C0.0260506 13.6798 -0.00552589 13.5217 0.000789412 13.3573V1.21502C0.000789412 1.04427 0.0323659 0.886166 0.0955189 0.740711C0.158672 0.595257 0.243928 0.468775 0.351288 0.361265C0.458648 0.253755 0.588112 0.165217 0.739679 0.0956522C0.891246 0.026087 1.04913 -0.0055336 1.21333 0.000790514H8.18542C8.41908 0.000790514 8.6338 0.0418972 8.82958 0.124111C9.02535 0.206324 9.21165 0.320158 9.38848 0.465613C9.56531 0.611067 9.72003 0.772332 9.85265 0.949407C9.98528 1.12648 10.1084 1.31304 10.2221 1.50909C10.3042 1.65455 10.3831 1.78103 10.4589 1.88854C10.5347 1.99605 10.6231 2.09407 10.7242 2.18261C10.8252 2.27115 10.9389 2.33123 11.0652 2.36285C11.1915 2.39447 11.3431 2.4166 11.5199 2.42925H18.1888C18.3594 2.42925 18.5172 2.46087 18.6625 2.52411C18.8077 2.58735 18.9341 2.67273 19.0414 2.78024C19.1488 2.88775 19.2372 3.01739 19.3067 3.16917C19.3761 3.32095 19.4077 3.47905 19.4014 3.64348ZM9.63478 2.81818C9.54005 2.717 9.44216 2.57787 9.34111 2.40079C9.24007 2.22372 9.12955 2.04664 9.00956 1.86957C8.88957 1.69249 8.76326 1.54071 8.63064 1.41423C8.49802 1.28775 8.34961 1.22134 8.18542 1.21502H1.21333V3.64348H8.18542C8.35593 3.64348 8.50118 3.61502 8.62117 3.5581C8.74116 3.50119 8.85484 3.42846 8.9622 3.33992C9.06956 3.25138 9.17376 3.15968 9.2748 3.06482C9.37585 2.96996 9.49584 2.88775 9.63478 2.81818ZM13.3387 11.2798L16.37 8.25375L19.4014 11.2798L18.5393 12.1431L16.9763 10.5779V17H15.7638V10.5779L14.2007 12.1431L13.3387 11.2798Z"/>
</svg>
