<svg width="16" height="16" viewBox="0 0 16 16" fill="none" xmlns="http://www.w3.org/2000/svg">
<path fill-rule="evenodd" clip-rule="evenodd" d="M14 7C14.276 7 14.5352 7.05208 14.7773 7.15625C15.0195 7.26041 15.2318 7.40364 15.4141 7.58593C15.5963 7.76823 15.7396 7.98047 15.8437 8.22265C15.9479 8.46484 16 8.72396 16 9C16 9.27604 15.9479 9.53515 15.8437 9.77734C15.7396 10.0195 15.5963 10.2318 15.4141 10.4141C15.2318 10.5964 15.0195 10.7396 14.7773 10.8437C14.5351 10.9479 14.276 11 14 11C13.7396 11 13.4948 10.9531 13.2656 10.8594C13.0365 10.7656 12.832 10.6367 12.6523 10.4727C12.4727 10.3086 12.3255 10.1159 12.2109 9.89453C12.0964 9.67318 12.0286 9.43229 12.0078 9.17188L10.8359 8.97656C10.7109 9.33594 10.5247 9.66016 10.2773 9.94922C10.0299 10.2383 9.73958 10.4714 9.40625 10.6484L9.85937 12.0078C9.88542 12.0026 9.90885 12 9.92969 12H10C10.276 12 10.5352 12.0521 10.7773 12.1563C11.0195 12.2604 11.2318 12.4036 11.4141 12.5859C11.5964 12.7682 11.7396 12.9805 11.8437 13.2227C11.9479 13.4648 12 13.724 12 14C12 14.276 11.9479 14.5352 11.8437 14.7773C11.7396 15.0195 11.5964 15.2318 11.4141 15.4141C11.2318 15.5964 11.0195 15.7396 10.7773 15.8438C10.5352 15.9479 10.276 16 10 16C9.72396 16 9.46484 15.9479 9.22266 15.8438C8.98047 15.7396 8.76823 15.5964 8.58594 15.4141C8.40364 15.2318 8.26042 15.0195 8.15625 14.7773C8.05208 14.5352 8 14.276 8 14C8 13.6563 8.08203 13.3359 8.24609 13.0391C8.41015 12.7422 8.63281 12.5026 8.91406 12.3203L8.46094 10.9609C8.38802 10.9714 8.3125 10.9805 8.23437 10.9883C8.15625 10.9961 8.07812 11 8 11C7.52083 11 7.06901 10.8919 6.64453 10.6758C6.22005 10.4596 5.86459 10.1589 5.57813 9.77344L3.95313 10.5781C3.98438 10.7188 4 10.8594 4 11C4 11.276 3.94792 11.5352 3.84375 11.7773C3.73958 12.0195 3.59635 12.2318 3.41406 12.4141C3.23177 12.5964 3.01953 12.7396 2.77734 12.8438C2.53516 12.9479 2.27604 13 2 13C1.72396 13 1.46484 12.9479 1.22266 12.8438C0.98047 12.7396 0.76823 12.5964 0.585937 12.4141C0.403646 12.2318 0.260417 12.0195 0.15625 11.7773C0.0520832 11.5352 0 11.276 0 11C0 10.724 0.0520833 10.4648 0.15625 10.2227C0.260417 9.98047 0.403646 9.76823 0.585937 9.58594C0.768229 9.40365 0.980469 9.26042 1.22266 9.15625C1.46484 9.05209 1.72396 9 2 9C2.29167 9 2.56771 9.0599 2.82812 9.17969C3.08854 9.29948 3.3151 9.46875 3.50781 9.6875L5.13281 8.875C5.04427 8.58334 5 8.29167 5 8C5 7.63021 5.0651 7.27344 5.19531 6.92969C5.32552 6.58594 5.51562 6.27605 5.76562 6.00001L4.82031 4.82032C4.55469 4.94011 4.28125 5.00001 4 5.00001C3.72396 5.00001 3.46484 4.94793 3.22265 4.84376C2.98047 4.73959 2.76823 4.59636 2.58593 4.41407C2.40364 4.23178 2.26041 4.01954 2.15625 3.77735C2.05208 3.53517 2 3.27605 2 3.00001C2 2.72397 2.05208 2.46485 2.15625 2.22267C2.26041 1.98048 2.40364 1.76824 2.58593 1.58595C2.76823 1.40365 2.98047 1.26043 3.22265 1.15626C3.46484 1.05209 3.72396 1.00001 4 1.00001C4.27604 1.00001 4.53515 1.05209 4.77734 1.15626C5.01953 1.26043 5.23177 1.40365 5.41406 1.58595C5.59635 1.76824 5.73958 1.98048 5.84375 2.22267C5.94792 2.46485 6 2.72397 6 3.00001C6 3.44272 5.86719 3.84116 5.60156 4.19532L6.53906 5.375C6.76302 5.25521 6.99869 5.16277 7.24609 5.09766C7.49348 5.03256 7.74479 5 7.99999 5C8.43228 5 8.84114 5.08594 9.22655 5.25782L10.5078 3.33594C10.3463 3.15365 10.2213 2.94792 10.1328 2.71875C10.0443 2.48959 9.99999 2.25 9.99999 2C9.99999 1.72396 10.0521 1.46484 10.1562 1.22266C10.2604 0.98047 10.4036 0.76823 10.5859 0.585937C10.7682 0.403646 10.9805 0.260417 11.2226 0.15625C11.4648 0.0520832 11.7239 0 12 0C12.276 0 12.5351 0.0520833 12.7773 0.15625C13.0195 0.260417 13.2318 0.403646 13.4141 0.585937C13.5963 0.768229 13.7396 0.980469 13.8437 1.22266C13.9479 1.46484 14 1.72396 14 2C14 2.27604 13.9479 2.53516 13.8437 2.77734C13.7396 3.01953 13.5963 3.23177 13.4141 3.41406C13.2318 3.59635 13.0195 3.73958 12.7773 3.84375C12.5351 3.94792 12.276 4 12 4C11.7812 4 11.5625 3.96354 11.3437 3.89063L10.0547 5.82031C10.3568 6.10156 10.5898 6.43099 10.7539 6.80859C10.918 7.1862 11 7.58073 11 7.99219L12.1719 8.1875C12.25 8.01042 12.3529 7.84765 12.4805 7.69922C12.6081 7.55078 12.7513 7.42578 12.9101 7.32422C13.069 7.22266 13.2409 7.14323 13.4258 7.08594C13.6107 7.02865 13.8021 7 14 7ZM12 1C11.8594 1 11.7292 1.02604 11.6094 1.07813C11.4896 1.13021 11.3841 1.20182 11.293 1.29297C11.2018 1.38411 11.1302 1.48958 11.0781 1.60938C11.026 1.72917 11 1.85938 11 2C11 2.14062 11.026 2.27083 11.0781 2.39062C11.1302 2.51042 11.2018 2.61589 11.293 2.70703C11.3841 2.79818 11.4896 2.86979 11.6094 2.92187C11.7292 2.97396 11.8594 3 12 3C12.1406 3 12.2708 2.97396 12.3906 2.92187C12.5104 2.86979 12.6159 2.79818 12.707 2.70703C12.7982 2.61589 12.8698 2.51042 12.9219 2.39062C12.974 2.27083 13 2.14062 13 2C13 1.85938 12.974 1.72917 12.9219 1.60938C12.8698 1.48958 12.7982 1.38411 12.707 1.29297C12.6159 1.20182 12.5104 1.13021 12.3906 1.07813C12.2708 1.02604 12.1406 1 12 1ZM2.39063 11.9219C2.27083 11.974 2.14063 12 2 12C1.85938 12 1.72917 11.974 1.60938 11.9219C1.48958 11.8698 1.38412 11.7982 1.29297 11.707C1.20182 11.6159 1.13021 11.5104 1.07813 11.3906C1.02604 11.2708 1 11.1406 1 11C1 10.8594 1.02604 10.7292 1.07813 10.6094C1.13021 10.4896 1.20182 10.3841 1.29297 10.293C1.38412 10.2018 1.48958 10.1302 1.60938 10.0781C1.72917 10.026 1.85938 10 2 10C2.14063 10 2.27083 10.026 2.39063 10.0781C2.51042 10.1302 2.61589 10.2018 2.70703 10.293C2.79818 10.3841 2.86979 10.4896 2.92188 10.6094C2.97396 10.7292 3 10.8594 3 11C3 11.1406 2.97396 11.2708 2.92188 11.3906C2.86979 11.5104 2.79818 11.6159 2.70703 11.707C2.61589 11.7982 2.51042 11.8698 2.39063 11.9219ZM11 14C11 13.8594 10.974 13.7292 10.9219 13.6094C10.8698 13.4896 10.7982 13.3841 10.707 13.293C10.6159 13.2018 10.5104 13.1302 10.3906 13.0781C10.2708 13.026 10.1406 13 10 13C9.85937 13 9.72916 13.026 9.60937 13.0781C9.48958 13.1302 9.38411 13.2018 9.29297 13.293C9.20182 13.3841 9.13021 13.4896 9.07812 13.6094C9.02604 13.7292 9 13.8594 9 14C9 14.1406 9.02604 14.2708 9.07812 14.3906C9.13021 14.5104 9.20182 14.6159 9.29297 14.707C9.38411 14.7982 9.48958 14.8698 9.60937 14.9219C9.72916 14.974 9.85937 15 10 15C10.1406 15 10.2708 14.974 10.3906 14.9219C10.5104 14.8698 10.6159 14.7982 10.707 14.707C10.7982 14.6159 10.8698 14.5104 10.9219 14.3906C10.974 14.2708 11 14.1406 11 14ZM3.07813 3.39062C3.02604 3.27083 3 3.14062 3 3C3 2.85937 3.02604 2.72917 3.07813 2.60937C3.13021 2.48958 3.20182 2.38411 3.29297 2.29297C3.38411 2.20182 3.48958 2.13021 3.60938 2.07812C3.72917 2.02604 3.85938 2 4 2C4.14062 2 4.27083 2.02604 4.39062 2.07812C4.51042 2.13021 4.61588 2.20182 4.70703 2.29297C4.79818 2.38411 4.86979 2.48958 4.92187 2.60937C4.97396 2.72917 5 2.85937 5 3C5 3.14062 4.97396 3.27083 4.92187 3.39062C4.86979 3.51042 4.79818 3.61588 4.70703 3.70703C4.61588 3.79818 4.51042 3.86979 4.39062 3.92187C4.27083 3.97396 4.14062 4 4 4C3.85938 4 3.72917 3.97396 3.60938 3.92187C3.48958 3.86979 3.38411 3.79818 3.29297 3.70703C3.20182 3.61588 3.13021 3.51042 3.07813 3.39062ZM8 9.99999C8.27604 9.99999 8.53515 9.94791 8.77734 9.84375C9.01953 9.73958 9.23177 9.59635 9.41406 9.41406C9.59635 9.23177 9.73958 9.01953 9.84375 8.77734C9.94792 8.53515 10 8.27604 10 7.99999C10 7.72395 9.94791 7.46484 9.84375 7.22265C9.73958 6.98046 9.59635 6.76822 9.41406 6.58593C9.23177 6.40364 9.01953 6.26041 8.77734 6.15624C8.53515 6.05208 8.27604 5.99999 8 5.99999C7.72396 5.99999 7.46484 6.05208 7.22265 6.15624C6.98047 6.26041 6.76823 6.40364 6.58593 6.58593C6.40364 6.76822 6.26041 6.98046 6.15625 7.22265C6.05208 7.46484 6 7.72395 6 7.99999C6 8.27604 6.05208 8.53515 6.15625 8.77734C6.26041 9.01953 6.40364 9.23176 6.58593 9.41406C6.76823 9.59635 6.98047 9.73958 7.22265 9.84375C7.46484 9.94791 7.72396 9.99999 8 9.99999ZM14.3906 9.92187C14.2708 9.97395 14.1406 10 14 10C13.8594 10 13.7292 9.97395 13.6094 9.92187C13.4896 9.86979 13.3841 9.79817 13.293 9.70703C13.2018 9.61588 13.1302 9.51041 13.0781 9.39062C13.026 9.27083 13 9.14062 13 9C13 8.85937 13.026 8.72916 13.0781 8.60937C13.1302 8.48958 13.2018 8.38411 13.293 8.29296C13.3841 8.20182 13.4896 8.1302 13.6094 8.07812C13.7292 8.02604 13.8594 8 14 8C14.1406 8 14.2708 8.02604 14.3906 8.07812C14.5104 8.1302 14.6159 8.20182 14.707 8.29296C14.7982 8.38411 14.8698 8.48958 14.9219 8.60937C14.974 8.72916 15 8.85937 15 9C15 9.14062 14.974 9.27083 14.9219 9.39062C14.8698 9.51041 14.7982 9.61588 14.707 9.70703C14.6159 9.79817 14.5104 9.86979 14.3906 9.92187Z" fill="#FFFFFF"/>
</svg>
