<svg width="16" height="16" viewBox="0 0 16 16" fill="none" xmlns="http://www.w3.org/2000/svg">
<path fill-rule="evenodd" clip-rule="evenodd" d="M13.9688 11.1992C13.6667 11.0664 13.3438 11 13 11H13C12.7864 11 12.5703 11.0286 12.3516 11.0859L9.99218 6.375C10.2266 6.21354 10.4375 6.02734 10.625 5.8164C10.8125 5.60547 10.9713 5.375 11.1016 5.125C11.2318 4.875 11.3307 4.61328 11.3984 4.33984C11.4661 4.0664 11.5 3.78645 11.5 3.5C11.5 3.01562 11.4088 2.5612 11.2266 2.13672C11.0443 1.71224 10.7943 1.34114 10.4766 1.02344C10.1588 0.705729 9.78775 0.455729 9.36327 0.273437C8.9388 0.0911456 8.48437 0 8 0C7.51562 0 7.0612 0.0911456 6.63672 0.273437C6.21224 0.45573 5.84115 0.705729 5.52344 1.02344C5.20573 1.34114 4.95573 1.71224 4.77344 2.13672C4.59115 2.5612 4.5 3.01562 4.5 3.5C4.5 3.78645 4.53385 4.0664 4.60156 4.33984C4.66927 4.61328 4.76823 4.875 4.89844 5.125C5.02865 5.375 5.1875 5.60547 5.375 5.8164C5.5625 6.02734 5.77344 6.21354 6.00781 6.375L3.64844 11.0859C3.42969 11.0286 3.21354 11 3 11C2.65625 11 2.33203 11.0664 2.02734 11.1992C1.72266 11.332 1.45703 11.5117 1.23047 11.7383C1.00391 11.9648 0.825521 12.2292 0.695312 12.5312C0.565104 12.8333 0.5 13.1562 0.5 13.5C0.5 13.8437 0.565104 14.168 0.695312 14.4727C0.825521 14.7773 1.00391 15.043 1.23047 15.2695C1.45703 15.4961 1.72266 15.6745 2.02734 15.8047C2.33203 15.9349 2.65625 16 3 16C3.34375 16 3.66667 15.9349 3.96875 15.8047C4.27084 15.6745 4.53516 15.4961 4.76172 15.2695C4.98828 15.043 5.16797 14.7773 5.30078 14.4727C5.43359 14.168 5.5 13.8437 5.5 13.5C5.5 13.1146 5.41537 12.75 5.24609 12.4062C5.07683 12.0625 4.84115 11.7708 4.53907 11.5312L6.89844 6.82031C7.25782 6.94011 7.625 7 8 7C8.375 7 8.74219 6.94011 9.10156 6.82031L11.4609 11.5312C11.1589 11.7708 10.9232 12.0625 10.7539 12.4062C10.5846 12.75 10.5 13.1146 10.5 13.5C10.5 13.8437 10.5651 14.168 10.6953 14.4727C10.8255 14.7773 11.0039 15.043 11.2305 15.2695C11.457 15.4961 11.7227 15.6745 12.0273 15.8047C12.332 15.9349 12.6563 16 13 16C13.3438 16 13.6667 15.9349 13.9688 15.8047C14.2708 15.6745 14.5352 15.4961 14.7617 15.2695C14.9883 15.043 15.168 14.7773 15.3008 14.4727C15.4336 14.168 15.5 13.8437 15.5 13.5C15.5 13.1562 15.4336 12.8333 15.3008 12.5312C15.168 12.2292 14.9883 11.9648 14.7617 11.7383C14.5352 11.5117 14.2708 11.332 13.9688 11.1992ZM3.58594 14.8828C3.40365 14.9609 3.20834 15 3.00001 15C2.79168 15 2.59636 14.9609 2.41407 14.8828C2.23178 14.8047 2.07293 14.6979 1.93751 14.5625C1.80209 14.4271 1.69532 14.2682 1.6172 14.0859C1.53907 13.9036 1.50001 13.7083 1.50001 13.5C1.50001 13.2917 1.53907 13.0963 1.6172 12.9141C1.69532 12.7318 1.80209 12.5729 1.93751 12.4375C2.07293 12.3021 2.23178 12.1953 2.41407 12.1172C2.59636 12.0391 2.79168 12 3.00001 12C3.20834 12 3.40365 12.0391 3.58594 12.1172C3.76824 12.1953 3.92709 12.3021 4.06251 12.4375C4.19792 12.5729 4.30469 12.7318 4.38282 12.9141C4.46094 13.0963 4.50001 13.2917 4.50001 13.5C4.50001 13.7083 4.46094 13.9036 4.38282 14.0859C4.30469 14.2682 4.19792 14.4271 4.06251 14.5625C3.92709 14.6979 3.76824 14.8047 3.58594 14.8828ZM5.50001 3.5C5.50001 3.84375 5.56511 4.16797 5.69532 4.47265C5.82553 4.77734 6.00391 5.04297 6.23048 5.26953C6.45704 5.49609 6.72266 5.67448 7.02735 5.80469C7.33204 5.93489 7.65626 6 8.00001 6C8.34376 6 8.66667 5.93489 8.96876 5.80469C9.27084 5.67448 9.53516 5.49609 9.76173 5.26953C9.98829 5.04297 10.168 4.77734 10.3008 4.47265C10.4336 4.16797 10.5 3.84375 10.5 3.5C10.5 3.15625 10.4336 2.83333 10.3008 2.53125C10.168 2.22916 9.98829 1.96484 9.76173 1.73828C9.53516 1.51171 9.27084 1.33203 8.96876 1.19922C8.66667 1.0664 8.34376 0.999998 8.00001 0.999998C7.65626 0.999998 7.33204 1.0664 7.02735 1.19922C6.72266 1.33203 6.45704 1.51172 6.23048 1.73828C6.00391 1.96484 5.82553 2.22916 5.69532 2.53125C5.56511 2.83333 5.50001 3.15625 5.50001 3.5ZM13.5859 14.8828C13.4036 14.9609 13.2083 15 13 15C12.7917 15 12.5964 14.9609 12.4141 14.8828C12.2318 14.8047 12.0729 14.6979 11.9375 14.5625C11.8021 14.4271 11.6953 14.2682 11.6172 14.0859C11.5391 13.9036 11.5 13.7083 11.5 13.5C11.5 13.2917 11.5391 13.0963 11.6172 12.9141C11.6953 12.7318 11.8021 12.5729 11.9375 12.4375C12.0729 12.3021 12.2318 12.1953 12.4141 12.1172C12.5964 12.0391 12.7917 12 13 12C13.2083 12 13.4036 12.0391 13.5859 12.1172C13.7682 12.1953 13.9271 12.3021 14.0625 12.4375C14.1979 12.5729 14.3047 12.7318 14.3828 12.9141C14.4609 13.0963 14.5 13.2917 14.5 13.5C14.5 13.7083 14.4609 13.9036 14.3828 14.0859C14.3047 14.2682 14.1979 14.4271 14.0625 14.5625C13.9271 14.6979 13.7682 14.8047 13.5859 14.8828Z" fill="#FFFFFF"/>
</svg>
