<svg width="23" height="19" viewBox="0 0 23 19" fill="none" xmlns="http://www.w3.org/2000/svg">
<path d="M17.25 9.5C17.25 10.2936 17.1003 11.0386 16.8008 11.7349C16.5013 12.4312 16.0933 13.0413 15.5767 13.5654C15.0601 14.0895 14.4499 14.5013 13.7461 14.8008C13.0423 15.1003 12.2936 15.25 11.5 15.25C10.7064 15.25 9.96143 15.1003 9.26514 14.8008C8.56885 14.5013 7.95866 14.0933 7.43457 13.5767C6.91048 13.0601 6.4987 12.4499 6.19922 11.7461C5.89974 11.0423 5.75 10.2936 5.75 9.5C5.75 8.70638 5.89974 7.96143 6.19922 7.26514C6.4987 6.56885 6.90674 5.95866 7.42334 5.43457C7.93994 4.91048 8.55013 4.4987 9.25391 4.19922C9.95768 3.89974 10.7064 3.75 11.5 3.75C12.2936 3.75 13.0386 3.89974 13.7349 4.19922C14.4312 4.4987 15.0413 4.90674 15.5654 5.42334C16.0895 5.93994 16.5013 6.55013 16.8008 7.25391C17.1003 7.95768 17.25 8.70638 17.25 9.5ZM11.5 13.8125C12.0915 13.8125 12.6493 13.7002 13.1733 13.4756C13.6974 13.251 14.1541 12.944 14.5435 12.5547C14.9328 12.1654 15.2435 11.7087 15.4756 11.1846C15.7077 10.6605 15.82 10.099 15.8125 9.5C15.8125 8.90853 15.7002 8.35075 15.4756 7.82666C15.251 7.30257 14.944 6.84587 14.5547 6.45654C14.1654 6.06722 13.7049 5.75651 13.1733 5.52441C12.6418 5.29232 12.084 5.18001 11.5 5.1875C10.901 5.1875 10.3433 5.2998 9.82666 5.52441C9.31006 5.74902 8.85335 6.05599 8.45654 6.44531C8.05973 6.83464 7.74902 7.29508 7.52441 7.82666C7.2998 8.35824 7.1875 8.91602 7.1875 9.5C7.1875 10.099 7.2998 10.6567 7.52441 11.1733C7.74902 11.6899 8.05599 12.1466 8.44531 12.5435C8.83464 12.9403 9.29134 13.251 9.81543 13.4756C10.3395 13.7002 10.901 13.8125 11.5 13.8125ZM17.25 0.875H23V6.625H21.5625V2.3125H17.25V0.875ZM1.4375 2.3125V6.625H0V0.875H5.75V2.3125H1.4375ZM21.5625 16.6875V12.375H23V18.125H17.25V16.6875H21.5625ZM1.4375 12.375V16.6875H5.75V18.125H0V12.375H1.4375Z" fill="#FFFFFF"/>
</svg>
