<svg id="Layer_1" data-name="Layer 1" xmlns="http://www.w3.org/2000/svg" viewBox="0 0 11.25 11.25"><defs><style>.cls-2{fill:#252526;}</style></defs><path class="cls-2" d="M5.62,0A5.72,5.72,0,0,1,8.47.76a6.43,6.43,0,0,1,1.14.88,6.43,6.43,0,0,1,.88,1.14,5.71,5.71,0,0,1,0,5.69,6.43,6.43,0,0,1-.88,1.14,6.43,6.43,0,0,1-1.14.88,5.71,5.71,0,0,1-5.69,0,6.43,6.43,0,0,1-1.14-.88A6.43,6.43,0,0,1,.76,8.47a5.71,5.71,0,0,1,0-5.69,6.43,6.43,0,0,1,.88-1.14A6.43,6.43,0,0,1,2.78.76,5.72,5.72,0,0,1,5.62,0Zm0,10.5a4.69,4.69,0,0,0,1.3-.18,4.76,4.76,0,0,0,1.16-.49A4.79,4.79,0,0,0,9.83,8.08a4.76,4.76,0,0,0,.49-1.16,4.75,4.75,0,0,0,0-2.59,4.76,4.76,0,0,0-.49-1.16A4.79,4.79,0,0,0,8.08,1.42,4.76,4.76,0,0,0,6.92.93,4.69,4.69,0,0,0,5.62.75,4.62,4.62,0,0,0,4.33.93a4.76,4.76,0,0,0-1.16.49A4.79,4.79,0,0,0,1.42,3.17,4.76,4.76,0,0,0,.93,4.33a4.75,4.75,0,0,0,0,2.59,4.76,4.76,0,0,0,.49,1.16A4.79,4.79,0,0,0,3.17,9.83a4.76,4.76,0,0,0,1.16.49A4.62,4.62,0,0,0,5.62,10.5ZM5.25,3H6V6.75H5.25Zm0,4.5H6v.75H5.25Z"/></svg>